<svg xmlns="http://www.w3.org/2000/svg" width="28.442" height="30.313" viewBox="0 0 28.442 30.313"><defs><style>.a,.b{fill:#b1b1b1;}.a{stroke:#b1b1b1;stroke-width:0.5px;}</style></defs><g transform="translate(0.25 0.254)"><g transform="translate(0 0)"><g transform="translate(0 0)"><path class="a" d="M43.728,6.577,30.193.043a.437.437,0,0,0-.38,0L16.279,6.577a.437.437,0,0,0-.247.393V22.838a.437.437,0,0,0,.247.393l13.535,6.534a.437.437,0,0,0,.38,0l13.535-6.534a.437.437,0,0,0,.247-.393V6.97A.437.437,0,0,0,43.728,6.577ZM30,.921,42.533,6.97,38.9,8.724a.433.433,0,0,0-.074-.047L26.382,2.669ZM25.4,3.163,37.908,9.2,35.345,10.44,22.839,4.4Zm12.8,6.869V14.6L35.807,15.76V11.187Zm4.9,12.533L30.44,28.676v-14.9l3.02-1.458a.437.437,0,0,0-.38-.786L30,13.019l-1.211-.585a.437.437,0,0,0-.38.786l1.154.557v14.9L16.905,22.564V7.666l9.641,4.654a.437.437,0,0,0,.38-.786L17.473,6.97l4.338-2.094,13.117,6.332.006.008v5.24a.437.437,0,0,0,.627.393l3.267-1.577a.437.437,0,0,0,.247-.393V9.61L43.1,7.666v14.9Z" transform="translate(-16.032 0.001)"/></g></g><g transform="translate(1.864 19.869)"><g transform="translate(0)"><path class="b" d="M50.661,342.264l-1.986-.959a.437.437,0,0,0-.38.786l1.986.959a.437.437,0,0,0,.38-.786Z" transform="translate(-48.048 -341.261)"/></g></g><g transform="translate(1.867 17.798)"><g transform="translate(0)"><path class="b" d="M52.534,307.574l-3.811-1.84a.437.437,0,0,0-.38.786l3.811,1.84a.437.437,0,0,0,.38-.787Z" transform="translate(-48.096 -305.69)"/></g></g></g></svg>